<?xml version="1.0" standalone="no"?>
<!DOCTYPE svg PUBLIC "-//W3C//DTD SVG 20010904//EN"
 "http://www.w3.org/TR/2001/REC-SVG-20010904/DTD/svg10.dtd">
<svg version="1.0" xmlns="http://www.w3.org/2000/svg"
 width="96.000000pt" height="96.000000pt" viewBox="0 0 96.000000 96.000000"
 preserveAspectRatio="xMidYMid meet">

<g transform="translate(0.000000,96.000000) scale(0.100000,-0.100000)"
fill="#000000" stroke="none">
<path d="M280 890 c-11 -11 -20 -24 -20 -30 0 -5 -25 -10 -55 -10 -76 0 -95
-20 -95 -100 0 -50 -4 -63 -26 -85 -30 -30 -27 -70 6 -94 16 -10 20 -25 20
-67 0 -41 5 -59 20 -74 11 -11 24 -20 28 -20 5 0 14 -11 20 -25 21 -46 103
-46 124 0 18 41 78 28 78 -16 0 -25 27 -49 55 -49 13 0 36 -11 50 -25 32 -33
35 -92 5 -118 -39 -33 -16 -97 35 -97 51 0 74 64 35 97 -30 26 -27 85 5 118
26 25 75 35 75 15 0 -6 11 -16 25 -22 21 -9 25 -18 25 -52 0 -29 -6 -47 -20
-59 -39 -33 -16 -97 35 -97 51 0 74 64 35 97 -28 24 -28 99 -1 108 11 3 22 12
25 20 3 8 15 15 26 15 37 0 60 35 60 93 0 47 3 54 30 69 60 34 61 106 2 143
-31 20 -31 21 -32 103 0 103 -14 122 -90 122 -39 0 -54 5 -74 25 -14 14 -32
25 -41 25 -9 0 -27 -11 -41 -25 -23 -23 -32 -25 -114 -25 -53 0 -90 4 -90 10
0 21 -41 50 -70 50 -17 0 -39 -9 -50 -20z m80 -20 c11 -11 20 -24 20 -30 0
-13 -37 -50 -50 -50 -13 0 -50 37 -50 50 0 13 37 50 50 50 6 0 19 -9 30 -20z
m310 -15 c10 -12 10 -18 0 -30 -7 -8 -18 -15 -25 -15 -7 0 -18 7 -25 15 -10
12 -10 18 0 30 7 8 18 15 25 15 7 0 18 -7 25 -15z m-406 -41 c8 -20 -91 -136
-113 -132 -24 5 -28 104 -5 129 22 25 109 27 118 3z m330 0 c3 -8 -9 -48 -27
-88 -31 -65 -37 -72 -62 -71 -24 0 -37 12 -75 65 -40 55 -45 68 -37 88 10 20
16 22 103 22 74 0 93 -3 98 -16z m218 -1 c14 -13 18 -31 18 -93 0 -58 -4 -79
-14 -83 -18 -7 -128 156 -120 178 9 21 91 20 116 -2z m-87 -110 c49 -74 53
-83 42 -107 -14 -30 -8 -30 -117 -8 -103 21 -107 29 -60 130 27 58 34 67 56
67 20 -1 37 -19 79 -82z m-310 -4 c26 -37 44 -72 41 -77 -5 -9 -168 -6 -233 4
-53 8 -50 32 12 94 51 51 58 55 94 52 35 -4 43 -10 86 -73z m-254 -60 c9 -18
7 -25 -9 -41 -16 -16 -23 -18 -41 -9 -23 13 -28 40 -9 59 19 19 46 14 59 -9z
m374 -39 c0 -18 -6 -26 -23 -28 -13 -2 -25 3 -28 12 -10 26 4 48 28 44 17 -2
23 -10 23 -28z m330 8 c46 -21 46 -85 0 -106 -31 -14 -72 1 -81 30 -12 39 8
72 53 87 1 1 14 -4 28 -11z m-506 -15 c50 -3 90 -10 89 -15 -2 -5 -37 -31 -78
-58 -56 -36 -79 -46 -92 -39 -31 17 -68 10 -94 -18 -25 -27 -26 -27 -40 -8
-18 25 -19 105 -1 105 8 0 22 9 32 20 20 22 40 24 184 13z m319 -34 c63 -10
75 -16 83 -36 5 -13 22 -32 39 -41 26 -15 30 -23 30 -59 0 -31 -6 -49 -22 -65
l-22 -22 -13 32 c-14 34 -53 56 -83 47 -13 -4 -33 13 -74 64 -61 76 -71 107
-33 98 12 -4 55 -11 95 -18z m-88 -87 c54 -68 58 -75 48 -102 -12 -37 -38 -39
-72 -5 -14 14 -32 25 -41 25 -9 0 -27 -11 -41 -25 -37 -37 -84 -28 -84 16 0
27 -28 49 -61 49 -47 0 -34 21 44 72 57 37 80 46 111 45 35 -2 43 -8 96 -75z
m-320 -22 c11 -11 20 -24 20 -30 0 -5 -9 -19 -20 -30 -11 -11 -24 -20 -30 -20
-5 0 -19 9 -30 20 -11 11 -20 25 -20 30 0 6 9 19 20 30 11 11 25 20 30 20 6 0
19 -9 30 -20z m468 -72 c28 -28 7 -78 -33 -78 -27 0 -45 18 -45 45 0 27 18 45
45 45 12 0 26 -5 33 -12z m-188 -33 c10 -12 10 -18 0 -30 -7 -8 -18 -15 -25
-15 -7 0 -18 7 -25 15 -10 12 -10 18 0 30 7 8 18 15 25 15 7 0 18 -7 25 -15z
m4 -200 c7 -19 -20 -46 -39 -39 -21 8 -26 32 -9 48 16 17 40 12 48 -9z m180 0
c7 -19 -20 -46 -39 -39 -21 8 -26 32 -9 48 16 17 40 12 48 -9z"/>
</g>
</svg>
